<svg
	height="64"
	width="64"
	viewBox="0 0 512 512"
	xmlns="http://www.w3.org/2000/svg">
	<g>
		<g clip-rule="evenodd" fill-rule="evenodd">
			<path stroke="#FF7627" stroke-width="15" stroke-opacity="0.75"
				d="m229.958 221.915-9.813-91.777c-.323-6.528-8.358-9.965-12.993-5.331l-10.223 10.223-122.636-122.635c-3.191-3.192-8.414-3.192-11.606 0l-50.292 50.291c-3.192 3.192-3.192 8.414 0 11.606l122.636 122.636-10.224 10.224c-4.372 4.368-1.543 12.262 4.904 12.948l92.085 9.845c4.699.569 8.666-3.279 8.162-8.03z"
				fill="#FF7627"/>
			<path stroke="#54e360" stroke-width="15" stroke-opacity="0.75"
				d="m221.796 282.058-92.085 9.845c-6.447.685-9.276 8.579-4.904 12.947l10.224 10.224-122.636 122.637c-3.191 3.192-3.191 8.414 0 11.606l50.292 50.292c3.192 3.192 8.414 3.192 11.606 0l122.636-122.636 10.224 10.224c4.635 4.634 12.67 1.197 12.993-5.331l9.812-91.777c.504-4.752-3.462-8.6-8.162-8.031z"
				fill="#54e360"/>
			<path stroke="#FD003A" stroke-width="15" stroke-opacity="0.75"
				d="m282.047 290.088 9.812 91.777c.323 6.528 8.358 9.965 12.993 5.331l10.223-10.224 122.636 122.636c3.192 3.192 8.414 3.192 11.606 0l50.292-50.292c3.192-3.192 3.192-8.414 0-11.606l-122.636-122.635 10.224-10.224c4.373-4.368 1.543-12.262-4.904-12.947l-92.086-9.845c-4.699-.57-8.665 3.278-8.16 8.029z"
				fill="#FD003A"/>
			<path stroke="#1689FC" stroke-width="15" stroke-opacity="0.75"
				d="m290.208 229.945 92.086-9.845c6.447-.685 9.276-8.579 4.904-12.947l-10.224-10.224 122.635-122.637c3.191-3.192 3.191-8.414 0-11.606l-50.292-50.292c-3.191-3.192-8.414-3.192-11.606 0l-122.636 122.636-10.223-10.223c-4.635-4.635-12.67-1.197-12.993 5.33l-9.812 91.778c-.505 4.751 3.461 8.599 8.161 8.03z"
				fill="#1689FC"/>
		</g>
	</g>
</svg>